<?xml version="1.0" encoding="utf-8"?>
<!-- Generator: Adobe Illustrator 22.1.0, SVG Export Plug-In . SVG Version: 6.00 Build 0)  -->
<svg version="1.1" id="Layer_1" xmlns:sketch="http://www.bohemiancoding.com/sketch/ns"
	 xmlns="http://www.w3.org/2000/svg" xmlns:xlink="http://www.w3.org/1999/xlink" x="0px" y="0px" viewBox="0 0 60 60"
	 style="enable-background:new 0 0 60 60;" xml:space="preserve">
<style type="text/css">
	.st0{fill:#352F24;}
	.st1{fill:#967D7A;fill-opacity:0.4;}
	.st2{fill:#FFFFFF;}
</style>
<path id="Facebook" class="st0" d="M30,60c16.6,0,30-13.4,30-30S46.6,0,30,0S0,13.4,0,30S13.4,60,30,60z"/>
<path class="st1" d="M51.2,8.8C56.6,14.2,60,21.7,60,30c0,16.6-13.4,30-30,30c-8.3,0-15.8-3.4-21.2-8.8L51.2,8.8z"/>
<path class="st2" d="M25.5,47.3V30h-3.5v-5.7h3.5v-3.5c0-4.7,1.4-8.1,6.5-8.1h6.1v5.7h-4.3c-2.2,0-2.6,1.4-2.6,2.9v2.9h6.6L36.9,30
	h-5.7v17.3H25.5z"/>
</svg>
