<?xml version="1.0" encoding="utf-8"?>
<!-- Generator: Adobe Illustrator 22.1.0, SVG Export Plug-In . SVG Version: 6.00 Build 0)  -->
<svg version="1.1" id="Layer_1" xmlns:sketch="http://www.bohemiancoding.com/sketch/ns"
	 xmlns="http://www.w3.org/2000/svg" xmlns:xlink="http://www.w3.org/1999/xlink" x="0px" y="0px" viewBox="0 0 60 60"
	 style="enable-background:new 0 0 60 60;" xml:space="preserve">
<style type="text/css">
	.st0{fill:#352F24;}
	.st1{fill:#967D7A;fill-opacity:0.4;}
	.st2{fill:#FFFFFF;}
</style>
<title></title>
<path id="Twitter" class="st0" d="M30,60c16.6,0,30-13.4,30-30S46.6,0,30,0S0,13.4,0,30S13.4,60,30,60z"/>
<path id="Twitter_1_" class="st1" d="M51.2,8.8C56.6,14.2,60,21.7,60,30c0,16.6-13.4,30-30,30c-8.3,0-15.8-3.4-21.2-8.8L51.2,8.8z"
	/>
<path class="st2" d="M41.1,18.4c-1.2-1.4-2.9-2.3-4.8-2.3c-3.7-0.1-6.6,3-6.6,6.9c0,0.6,0.1,1.1,0.2,1.6c-5.5-0.4-10.4-3.2-13.7-7.5
	c-0.6,1-0.9,2.2-0.9,3.5c0,2.5,1.2,4.6,2.9,5.9c-1.1,0-2.1-0.4-3-0.9c0,0,0,0.1,0,0.1c0,3.4,2.3,6.3,5.3,7c-0.6,0.2-1.1,0.2-1.7,0.2
	c-0.4,0-0.8-0.1-1.2-0.1c0.8,2.8,3.3,4.9,6.2,4.9c-2.3,1.9-5.1,3-8.2,3c-0.5,0-1.1,0-1.6-0.1c2.9,2,6.4,3.2,10.2,3.2
	c12.2,0,18.9-10.6,18.9-19.8c0-0.3,0-0.6,0-0.9c1.3-1,2.4-2.2,3.3-3.6c-1.2,0.5-2.5,0.9-3.8,1c1.4-0.8,2.4-2.2,2.9-3.8
	C44,17.6,42.6,18.1,41.1,18.4z"/>
</svg>
