<?xml version="1.0" encoding="utf-8"?>
<!-- Generator: Adobe Illustrator 22.1.0, SVG Export Plug-In . SVG Version: 6.00 Build 0)  -->
<svg version="1.1" id="Capa_1" xmlns="http://www.w3.org/2000/svg" xmlns:xlink="http://www.w3.org/1999/xlink" x="0px" y="0px"
	 viewBox="0 0 418.9 418.9" style="enable-background:new 0 0 418.9 418.9;" xml:space="preserve">
<style type="text/css">
	.st0{fill:#C5B375;}
</style>
<g>
	<g>
		<path class="st0" d="M188.6,234.1c8.5-5.3,16.1-11.7,22.8-19.1l23.9,13.8l21.8-37.8l-23.9-13.8c3-9.3,4.8-19.1,5.2-29.3l27.2-4.8
			l-7.6-42.9l-27.2,4.8c-3.8-9.3-8.8-18-14.9-25.7L233.7,58l-33.4-28l-17.8,21.2c-8.7-4.6-18.1-8.1-28-10.2V13.4H111V41
			c-9.9,2.1-19.3,5.6-28,10.2L65.3,30L31.9,58l17.8,21.2C43.5,87,38.5,95.7,34.7,105l-27.2-4.8L0,143.1l27.2,4.8
			c0.3,10.2,2.1,20,5.2,29.3L8.4,191l21.8,37.8l23.9-13.8c6.6,7.4,14.3,13.8,22.8,19.1l-9.5,26l41,14.9l9.4-25.9
			c4.9,0.7,9.8,1.1,14.9,1.1c5.1,0,10-0.4,14.9-1.1l9.4,25.9l41-14.9L188.6,234.1z M132.8,200.1c-30.7,0-55.7-25-55.7-55.7
			c0-30.7,25-55.7,55.7-55.7s55.7,25,55.7,55.7C188.5,175.1,163.5,200.1,132.8,200.1z"/>
		<path class="st0" d="M376,266.8l-18.8,6.1c-3.6-6.2-8-11.9-13.1-16.8l10.5-16.8l-26.4-16.6l-10.5,16.8c-6.6-2.4-13.6-4-20.8-4.5
			l-2.7-19.6l-30.9,4.3l2.7,19.6c-6.8,2.5-13.1,5.8-18.8,10l-14.7-13.2l-20.9,23.2l14.7,13.3c-3.6,6.1-6.3,12.8-8,19.7l-19.7-0.7
			l-1.1,31.2l19.7,0.7c1.2,7.2,3.5,14,6.6,20.3l-15.6,12.1l19.2,24.6l15.6-12.2c5.4,4.6,11.5,8.4,18,11.3l-4.1,19.3l30.5,6.5
			l4.1-19.3c3.5,0,7.1-0.2,10.7-0.7c3.6-0.5,7.1-1.2,10.4-2.2l9.3,17.5l27.6-14.6l-9.3-17.5c5.5-4.6,10.3-9.9,14.3-15.8l18.3,7.4
			l11.7-28.9l-18.3-7.4c1.2-6.9,1.5-14,0.8-21.3l18.8-6.1L376,266.8z M297.1,350c-21.8,3-41.9-12.2-45-34c-3-21.8,12.2-41.9,34-45
			c21.8-3,41.9,12.2,45,34C334.1,326.8,318.9,347,297.1,350z"/>
		<path class="st0" d="M418.1,158.6l0.7-24.6l-15.6-0.5c-1-5.4-2.7-10.8-5.3-16l12.2-9.7L395,88.6l-12.2,9.7
			c-4.4-3.6-9.2-6.6-14.3-8.8l3.2-15.3l-24.1-5l-3.2,15.3c-5.6,0-11.2,0.8-16.6,2.4l-7.4-13.7l-21.7,11.7l7.4,13.7
			c-4.4,3.7-8.1,7.9-11.2,12.6l-14.5-5.8l-9.1,22.9l14.5,5.8c-1,5.5-1.1,11.2-0.5,16.8l-14.8,4.9l7.7,23.4l14.8-4.9
			c2.9,5,6.4,9.4,10.4,13.2l-8.2,13.3l21,12.9l8.2-13.3c5.3,1.9,10.8,3.1,16.5,3.4l2.3,15.5l24.4-3.6l-2.2-15.4
			c2.6-1,5.2-2.1,7.7-3.5c2.5-1.4,4.9-2.9,7.1-4.5l11.6,10.4l16.4-18.4l-11.7-10.4c2.8-4.9,4.9-10.2,6.2-15.6L418.1,158.6z
			 M359.4,171.8c-15.3,8.2-34.4,2.5-42.6-12.8c-8.2-15.3-2.5-34.4,12.8-42.6c15.3-8.2,34.4-2.5,42.6,12.8
			C380.4,144.5,374.7,163.6,359.4,171.8z"/>
	</g>
</g>
</svg>
